# xmcd
#
# Track frame offsets:
#	150
#	15522
#	32960
#	52343
#	68868
#	85196
#	99866
#	113709
#	131854
#	149001
#	160093
#	172601
#	188350
#	198638
#	216022
#	231703
#	247452
#	262231
#	280334
#	296900
#	318047
#
# Disc length: 4437 seconds
#
# Revision: 1
# Processed by: cddbd v1.5.2PL0 Copyright (c) Steve Scherf et al.
# Submitted via: audiograbber 1.83.01
#
DISCID=46115315
DTITLE=Various Artist - R&B In The Mix 2011 [CD2]
DYEAR=2011
DGENRE=R&B
TTITLE0=Jason Derulo - Don't Wanna Go Home
TTITLE1=The Black Eyed Peas - Don T Stop The Party
TTITLE2=LMFAO Ft. Lauren Bennett - Party Rock Anthem
TTITLE3=Chris Brown Ft. Benny Benassi - Beautiful People
TTITLE4=Usher - More [Redone Jimmy Joker Remix]
TTITLE5=Wynter Gordon - Dirty Talk
TTITLE6=Chase and Status Ft. Tinie Tempah - Hitz
TTITLE7=Diddy - Ass On The Floor
TTITLE8=Alexis Jordan - Good Girl
TTITLE9=Alexandra Stan - Mr. Saxobeat
TTITLE10=Chris Willis - Louder (Put Your Hands Up)
TTITLE11=DJ Antoine vs Timati Ft. Kalenna - Welcome To St. Tropez [Lockouts Rem
TTITLE11=ix]
TTITLE12=Bingo Players - Cry (Just A Little)
TTITLE13=Wildboyz - Dominoes [Lockouts Remix]
TTITLE14=Nightcrawlers Ft. Taio Cruz - Cryin' Over You [Freemasons Radio Edit]
TTITLE15=SoundGirl - Don't Know Why
TTITLE16=Duchess - All The Boyz
TTITLE17=Fabolous  Ft. Drake and The-Dream - Throw It In The Bag Remix
TTITLE18=New Boyz - Backseat
TTITLE19=Young Jeezy Ft. Lil Wayne - Ballin'
TTITLE20=Ace Hood - Hustle Hard
EXTD=
EXTT0=
EXTT1=
EXTT2=
EXTT3=
EXTT4=
EXTT5=
EXTT6=
EXTT7=
EXTT8=
EXTT9=
EXTT10=
EXTT11=
EXTT12=
EXTT13=
EXTT14=
EXTT15=
EXTT16=
EXTT17=
EXTT18=
EXTT19=
EXTT20=
PLAYORDER=
